<?xml version="1.0" encoding="utf-8"?>
<!-- Generator: Adobe Illustrator 18.0.0, SVG Export Plug-In . SVG Version: 6.00 Build 0)  -->
<!DOCTYPE svg PUBLIC "-//W3C//DTD SVG 1.1//EN" "http://www.w3.org/Graphics/SVG/1.1/DTD/svg11.dtd">
<svg version="1.1" id="Layer_1" xmlns="http://www.w3.org/2000/svg" xmlns:xlink="http://www.w3.org/1999/xlink" x="0px" y="0px"
	 width="21.5px" height="21.2px" viewBox="0 0 21.5 21.2" enable-background="new 0 0 21.5 21.2" xml:space="preserve">
<g>
	<path fill="#28B08B" d="M10.7,0.6c-5.5,0-10,4.5-10,10c0,5.5,4.5,10,10,10c5.5,0,10-4.5,10-10C20.7,5.1,16.2,0.6,10.7,0.6L10.7,0.6
		z M10.7,19.5c-4.9,0-8.9-4-8.9-8.9c0-4.9,4-8.9,8.9-8.9c4.9,0,8.9,4,8.9,8.9C19.6,15.5,15.6,19.5,10.7,19.5L10.7,19.5z M16.7,7.2
		c-0.2-0.2-0.5-0.2-0.7,0l-6.7,6.7l-2.8-2.8c-0.2-0.2-0.6-0.2-0.7,0c-0.2,0.2-0.2,0.6,0,0.7L8.9,15c0.1,0.1,0.2,0.2,0.4,0.2
		c0.1,0,0.3-0.1,0.4-0.2l7.1-7.1C16.9,7.7,16.9,7.4,16.7,7.2L16.7,7.2z M16.7,7.2"/>
</g>
</svg>
