<?xml version="1.0" encoding="utf-8"?>
<!-- Generator: Adobe Illustrator 18.0.0, SVG Export Plug-In . SVG Version: 6.00 Build 0)  -->
<!DOCTYPE svg PUBLIC "-//W3C//DTD SVG 1.1//EN" "http://www.w3.org/Graphics/SVG/1.1/DTD/svg11.dtd">
<svg version="1.1" id="Layer_1" xmlns="http://www.w3.org/2000/svg" xmlns:xlink="http://www.w3.org/1999/xlink" x="0px" y="0px"
	 width="20px" height="24px" viewBox="246 244 20 24" enable-background="new 246 244 20 24" xml:space="preserve">
<path fill="#FFFFFF" d="M256,244c-5.5,0-10,4-10,9c0,8,9,14.3,9.4,14.6l0.6,0.4l0.6-0.4c0.4-0.3,9.4-6.6,9.4-14.6
	C266,248,261.5,244,256,244z M256,265.7c-2-1.5-8-6.7-8-12.6c0-4,3.6-7.2,8-7.2c4.4,0,8,3.2,8,7.2C264,259,258,264.1,256,265.7z"/>
<path fill="#FFFFFF" d="M255.8,249.3c-2.1,0-3.9,1.6-3.9,3.5c0,1.9,1.7,3.5,3.9,3.5c2.1,0,3.9-1.6,3.9-3.5
	C259.7,250.8,258,249.3,255.8,249.3z"/>
</svg>
